<svg xmlns="http://www.w3.org/2000/svg" width="80" height="80">
  <path d="M80 40A40 40 0 1 1 40.2 0 40 40 0 0 1 80 40zM28.4 22.2H25c-.7 0-.7 0-.8.6a11.3 11.3 0 0 1-.3 2.3l-2.8 8.7L13.6 57c-.2.8-.2.8.7.8h4.5a.8.8 0 0 0 1-.7l2.5-8.4c.1-.2.1-.4.5-.4H34a.5.5 0 0 1 .4.3l.6 1.5 2.3 7.1c0 .3.1.6.5.6h5.8c.3 0 .4-.2.4-.4V57l-2.7-8.1-8.8-26.2a.6.6 0 0 0-.7-.5h-3.4zm24 23.1H63l4.7-.2a.6.6 0 0 0 .7-.6 19.1 19.1 0 0 0 0-5.5c-.7-4-3.2-8.4-9.2-9-4.7-.3-8.4 1.3-10.9 5.4A17 17 0 0 0 47 50.2a10.6 10.6 0 0 0 8 7.2 19.5 19.5 0 0 0 6.7.3 14 14 0 0 0 4.5-1.2.7.7 0 0 0 .5-.7v-4.4a1.3 1.3 0 0 0 0-.2h-.2a1.6 1.6 0 0 0-.3 0 14.7 14.7 0 0 1-8 1c-4-.7-5.7-3.6-5.8-6.9z"/>
  <path d="M28.4 22.2h3.3a.6.6 0 0 1 .7.5l8.8 26.1L44 57l.1.4c.1.1 0 .4-.3.4h-5.9c-.4 0-.4-.3-.5-.6l-2.3-7-.6-1.6a.5.5 0 0 0-.4-.3H22.8c-.4 0-.4.2-.5.4l-2.6 8.5a.8.8 0 0 1-1 .7h-4.5c-.8 0-.8 0-.6-.9l7.6-23c1-3 2-5.8 2.8-8.7a11.3 11.3 0 0 0 .3-2.3c.1-.6 0-.6.8-.6zm0 5.5l-4.3 14.8h8.7zm24 17.6c0 3.3 1.7 6.3 5.8 6.9a14.7 14.7 0 0 0 8-1 1.6 1.6 0 0 1 .3 0h.1a1.3 1.3 0 0 1 .1.2v4.4a.7.7 0 0 1-.5.7 14 14 0 0 1-4.5 1.1 19.5 19.5 0 0 1-6.7-.2 10.6 10.6 0 0 1-8-7.2 17 17 0 0 1 1.4-14.9c2.4-4 6.2-5.6 10.8-5.3 6 .5 8.5 5 9.2 9a19.1 19.1 0 0 1 0 5.5.6.6 0 0 1-.7.6l-4.7.2H53zm0-4.5h9.9c.3 0 .4-.2.5-.6a4.8 4.8 0 0 0-4.5-5.1c-3.6-.3-5.6 2.5-5.8 5.7z" fill="#9632c8"/>
  <path d="M28.4 27.7L33 42.5h-9zm24.1 13.1c.2-3.2 2.2-6 5.8-5.7a4.8 4.8 0 0 1 4.5 5.1c0 .4-.2.5-.5.5h-9.8z"/>
</svg>
