<svg xmlns="http://www.w3.org/2000/svg" width="80" height="80">
  <path d="M80 40A40 40 0 1 1 40.4 0 40 40 0 0 1 80 40zm-45.3 8.3h5.4a.7.7 0 0 1 .8.5l2.7 8.4a.8.8 0 0 0 .9.6h5.2c.7 0 .8 0 .6-.7l-1.6-4.6-10-29.7a.8.8 0 0 0-.9-.6h-6.5c-.6 0-.6 0-.7.6a11.2 11.2 0 0 1-.3 2.3l-5.3 16-5 15.8c-.3.8-.2.9.7.9H25c.8 0 .9 0 1.1-.9l2.5-8a.7.7 0 0 1 .8-.7h5.4zm25-3.2v-12c0-.6 0-.6-.7-.6h-4.7c-.6 0-.7 0-.7.6v24c0 .6.1.7.7.7H59c.7 0 .7 0 .7-.7zm-6.4-19.5a3.4 3.4 0 0 0 6.8 0 3.2 3.2 0 0 0-3.4-3.3 3.2 3.2 0 0 0-3.4 3.3z"/>
  <path d="M34.7 48.3h-5.3a.7.7 0 0 0-.9.6l-2.4 8c-.3.9-.3 1-1.2 1h-4.3c-.9 0-1-.1-.7-1l5.2-15.8 5.2-16a11.2 11.2 0 0 0 .3-2.2c.1-.6.1-.7.7-.7H38a.8.8 0 0 1 .9.7l10 29.7 1.5 4.5c.2.6.1.7-.5.8h-5.3a.8.8 0 0 1-.9-.7c-.8-2.8-1.8-5.5-2.7-8.3a.7.7 0 0 0-.7-.6h-5.5zm0-20.6l-4.3 14.8H39zm24.9 17.4v12c0 .7 0 .8-.7.8h-4.6c-.6 0-.7-.1-.7-.7v-24c0-.6 0-.7.7-.7H59c.6 0 .7 0 .7.7zm-6.3-19.5a3.2 3.2 0 0 1 3.4-3.3 3.2 3.2 0 0 1 3.4 3.4 3.4 3.4 0 0 1-6.8 0z" fill="#da7a28"/>
  <path d="M34.7 27.7l4.4 14.8h-8.7z"/>
</svg>
