<svg xmlns="http://www.w3.org/2000/svg" width="80" height="80">
  <path d="M40 80a40 40 0 1 1 40-40.2A40 40 0 0 1 40 80zM27.2 22.3h-3.4c-.5 0-.6.1-.6.5a12 12 0 0 1-.3 2.4L20.3 33l-7.8 24c-.2.7-.2.8.5.8h4.7a.8.8 0 0 0 .8-.7l2.6-8.4a.6.6 0 0 1 .7-.5h10.9a.6.6 0 0 1 .7.6l2.7 8.3a.8.8 0 0 0 .9.7h5.2c.6 0 .7-.1.5-.7L31.2 22.7a.6.6 0 0 0-.7-.4h-3.3zm39.2 20V31.5c0-.4-.2-.5-.6-.5h-4.9c-.7 0-.7 0-.7.6v19.7a.7.7 0 0 1-.6.8 10.3 10.3 0 0 1-5 .2 3.2 3.2 0 0 1-2.7-2.8 12.6 12.6 0 0 1-.2-2.3V31.6c0-.6 0-.6-.6-.6h-4.9c-.7 0-.7 0-.7.7v16.1l.1 2.3a7.6 7.6 0 0 0 6.4 7.3 19.9 19.9 0 0 0 7.5 0 31.4 31.4 0 0 0 6.5-1.7c.7-.3.7-.3.6-1l-.3-4.7v-7.7z"/>
  <path d="M27.2 22.3h3.3a.6.6 0 0 1 .7.4L42.7 57c.2.6.1.7-.5.7H37a.8.8 0 0 1-.9-.7l-2.7-8.3a.6.6 0 0 0-.7-.5h-11a.6.6 0 0 0-.6.4L18.5 57a.8.8 0 0 1-.8.7H13c-.7 0-.7 0-.5-.8l7.8-24 2.6-7.8a12 12 0 0 0 .3-2.4c0-.4.1-.5.6-.5h3.4zm4.5 20.3l-4.5-15-4.3 15zm34.7-.3V50l.2 4.7c0 .7.1.7-.6 1a31.4 31.4 0 0 1-6.6 1.7 19.9 19.9 0 0 1-7.4 0 7.6 7.6 0 0 1-6.4-7.3V31.7c0-.7 0-.7.6-.7h5c.5 0 .5 0 .5.7v15.6a12.6 12.6 0 0 0 .2 2.3 3.2 3.2 0 0 0 2.8 2.8 10.3 10.3 0 0 0 5-.2.7.7 0 0 0 .6-.9V31.7c0-.7 0-.7.7-.7h4.8c.5 0 .6.1.6.6v10.7z" fill="#3bd6aa"/>
  <path d="M31.7 42.5h-8.8l4.3-14.8z"/>
</svg>
