<svg xmlns="http://www.w3.org/2000/svg" width="80" height="80">
  <path d="M80 40A40 40 0 1 1 40.4 0 40 40 0 0 1 80 40z"/>
  <path d="M27.1 22h17.5a12.5 12.5 0 0 1 7.8 2.2q2.9 2.2 2.9 6.7a8 8 0 0 1-1.3 4.7 8.5 8.5 0 0 1-3.8 3 7.8 7.8 0 0 1 5 3.2 10.4 10.4 0 0 1 1.7 6.2 10.2 10.2 0 0 1-.8 4 8 8 0 0 1-2.3 3.2 12.2 12.2 0 0 1-4.2 2 20.1 20.1 0 0 1-6 .9H27.1V22zm6.3 15h10.3a5.6 5.6 0 0 0 3.8-1.2A4.6 4.6 0 0 0 49 32c0-1.8-.5-3.1-1.4-3.9a6.2 6.2 0 0 0-3.9-1H33.4v10zm0 15.9h11.1a6.2 6.2 0 0 0 4.5-1.5 5.5 5.5 0 0 0 1.6-4.2A5.2 5.2 0 0 0 49 43a6.4 6.4 0 0 0-4.5-1.4H33.4z" fill="#9632c8"/>
</svg>
