<svg xmlns="http://www.w3.org/2000/svg" width="80" height="80">
  <defs>
    <style>
      .b{fill:#fff}.c{fill:#cf142b}
    </style>
  </defs>
  <path d="M80 40a40.4 40.4 0 0 1-.8 8 40.7 40.7 0 0 1-1.4 5l.5.3h-.6a37.7 37.7 0 0 1-2 4.6 39.5 39.5 0 0 1-4.3 6.8 39.9 39.9 0 0 1-18.1 13 39.2 39.2 0 0 1-5.3 1.5 41 41 0 0 1-8 .8h-.2A39.9 39.9 0 0 1 8.5 64.7L7 62.5a40.1 40.1 0 0 1-4.6-9.2l-1-2.9L.9 48a40.9 40.9 0 0 1 0-16l.5-2.3.8-2.7-.6-.3h.8a36 36 0 0 1 1.9-4.5 39 39 0 0 1 4.2-6.8A40 40 0 0 1 40 0h.3a39.5 39.5 0 0 1 7.7.8 39.8 39.8 0 0 1 23.5 14.6l1.5 2.1a39.5 39.5 0 0 1 2.7 4.6 37.5 37.5 0 0 1 2 4.6 43.2 43.2 0 0 1 1.5 5.3 40 40 0 0 1 .8 8z" fill="#00247d"/>
  <path class="b" d="M78.6 50.5l-.8 2.6.5.2h-.6a37.7 37.7 0 0 1-2 4.6 39.5 39.5 0 0 1-4.3 6.8l-18.1-9L48 53l-8-4-8 4-5.3 2.7-18.2 9L7 62.5a40.1 40.1 0 0 1-4.6-9.2l-1-2.9 5-2.4L22 40 5.9 32l-4.6-2.3.8-2.7-.6-.3h.8a36 36 0 0 1 1.9-4.5 39 39 0 0 1 4.2-6.8l18.3 9.1 5.3 2.7 8 4 8-4 5.3-2.7 18.2-9 1.5 2a39.5 39.5 0 0 1 2.7 4.6 37.5 37.5 0 0 1 2 4.6l1 3L74 32l-16.2 8 15.9 8z"/>
  <path class="c" d="M40 40l-16 8-10.7 5.3L4.2 58A40.4 40.4 0 0 0 7 62.5l18-9.2 7-3.3 8-4v-6zm-16.2-8l-10.6-5.3-9-4.5a36 36 0 0 0-2 4.5h-.7l.7.3 9.9 5 16 8H40zM73 17.5l-18.3 9.2L48 30l-8 4v6l16-8 10.6-5.3 9.1-4.6a39.5 39.5 0 0 0-2.7-4.6zm4.8 35.6L67.7 48l-15.9-8-11.8.1L55.8 48l10.7 5.3 9.3 4.7a37.7 37.7 0 0 0 2-4.6h.6z"/>
  <path class="b" d="M80 40a40.4 40.4 0 0 1-.8 8 40.7 40.7 0 0 1-1.4 5l.5.3h-25v24.4a39.2 39.2 0 0 1-5.3 1.5 41 41 0 0 1-8 .8h-.2a39.8 39.8 0 0 1-13-2.3V53.3H2.2l-1-2.9L.9 48a40.9 40.9 0 0 1 0-16l.5-2.3.8-2.7-.6-.3h25.2V2.3A39.2 39.2 0 0 1 40 0h.3a39.5 39.5 0 0 1 7.7.8 40 40 0 0 1 5.3 1.5v24.4h24.4a43.2 43.2 0 0 1 1.5 5.3 40 40 0 0 1 .8 8z"/>
  <path class="c" d="M80 40a40.4 40.4 0 0 1-.8 8H48v31.2a41 41 0 0 1-8 .8h-.2a40 40 0 0 1-7.8-.8V48H.8a40.9 40.9 0 0 1 0-16H32V.8a40.4 40.4 0 0 1 8-.8h.3a39.5 39.5 0 0 1 7.7.8V32h31.2a40 40 0 0 1 .8 8z"/>
</svg>
