<svg xmlns="http://www.w3.org/2000/svg" width="80" height="80">
  <path d="M80 40A40 40 0 1 1 40.4 0 40 40 0 0 1 80 40z"/>
  <path d="M28 52.1v-.4l.1-.5a6.4 6.4 0 0 1 .7-2.2l.4-.6.3-.4.1-.2a6 6 0 0 1 2.6-1.6l1-.2H40v6a6 6 0 0 1-11.8 1l-.1-.9z" fill="#0ace82"/>
  <path d="M33.3 34l-1-.2a5.7 5.7 0 0 1-3.6-3 8 8 0 0 1-.6-2.2v-.4a6 6 0 0 1 5-6 3.8 3.8 0 0 1 .6-.1H40V34z" fill="#f14e1e"/>
  <path d="M40 34V22.1h6.1a6 6 0 0 1 5.8 6.4 6 6 0 0 1-3.5 5l-.1.1-1.7.4h-1.3a.6.6 0 0 0-.2 0H40z" fill="#fe7262"/>
  <path d="M33.3 34H40v12h-6.6l-.1-.1A6.2 6.2 0 0 1 31 45l-.4-.1-.5-.4a6.2 6.2 0 0 1-1.9-2.8 5.5 5.5 0 0 1-.2-1.9 5.6 5.6 0 0 1 1.3-3.7l.9-.9.5-.4a9 9 0 0 1 1-.4l1.4-.4z" fill="#a159fe"/>
  <path d="M40 40.7v-1.4a11.4 11.4 0 0 1 .5-1.6 5.9 5.9 0 0 1 4.8-3.6h1.4l1.6.4.5.3.3.1a6.2 6.2 0 0 1 2.3 2.6 6.4 6.4 0 0 1 .5 2 5.6 5.6 0 0 1-.2 2.4 5.9 5.9 0 0 1-2.9 3.4 5.6 5.6 0 0 1-3.4.7 5.9 5.9 0 0 1-5-4 9.1 9.1 0 0 1-.4-1.3z" fill="#1abbfd"/>
</svg>
