<svg xmlns="http://www.w3.org/2000/svg" width="80" height="80">
  <path d="M60 5.4v69.3a39.1 39.1 0 0 1-5 2.4A40 40 0 0 1 40 80h-.2A39.7 39.7 0 0 1 25 77.1a39.1 39.1 0 0 1-5-2.4V5.4a39.2 39.2 0 0 1 5-2.5A40 40 0 0 1 40 0h.3A39.5 39.5 0 0 1 55 3a40.7 40.7 0 0 1 5 2.4z" fill="#fff"/>
  <path d="M25 3v74a39.1 39.1 0 0 1-5-2.4 40 40 0 0 1 0-69.3 39.2 39.2 0 0 1 5-2.5z" fill="#002395"/>
  <path d="M80 40a40 40 0 0 1-20 34.7 39.1 39.1 0 0 1-5 2.4V2.9a40.7 40.7 0 0 1 5 2.5A40 40 0 0 1 80 40z" fill="#ed2939"/>
</svg>
