<svg xmlns="http://www.w3.org/2000/svg" width="80" height="80">
  <path d="M80 40A40 40 0 1 1 40.4 0 40 40 0 0 1 80 40z" fill="#fff"/>
  <path d="M74.6 19.9A39.8 39.8 0 0 0 60.1 5.3 39.2 39.2 0 0 0 40 0a39.2 39.2 0 0 0-20 5.3A39.9 39.9 0 0 0 5.3 20 39.2 39.2 0 0 0 0 40a38.9 38.9 0 0 0 7.6 23.5 39.2 39.2 0 0 0 19.7 14.4 2.3 2.3 0 0 0 2.1-.3 2 2 0 0 0 .7-1.6v-7.5l-1.2.3a15 15 0 0 1-2.9.2 22 22 0 0 1-3.6-.4 8.2 8.2 0 0 1-3.5-1.6 6.7 6.7 0 0 1-2.3-3.2l-.6-1.2a13.1 13.1 0 0 0-1.6-2.6 6.3 6.3 0 0 0-2.3-2l-.3-.3a3.6 3.6 0 0 1-.7-.6 2.8 2.8 0 0 1-.5-.7q-.1-.4.3-.6a3.5 3.5 0 0 1 1.5-.2l1 .1A7.5 7.5 0 0 1 16 57a8.3 8.3 0 0 1 2.5 2.7 9.2 9.2 0 0 0 3 3.3 6.1 6.1 0 0 0 3.3 1 15 15 0 0 0 3-.3 10.4 10.4 0 0 0 2.3-.7 8.5 8.5 0 0 1 2.6-5.4 36.8 36.8 0 0 1-5.3-.9 21.5 21.5 0 0 1-5-2 14 14 0 0 1-4.1-3.5 16.7 16.7 0 0 1-2.8-5.5 25.8 25.8 0 0 1-1-7.8 15.2 15.2 0 0 1 4-10.7q-1.8-4.7.5-10.6c1-.3 2.5-.1 4.4.7a30.4 30.4 0 0 1 4.4 2c1 .5 1.6 1 2.2 1.4a37.7 37.7 0 0 1 20 0l2-1.3a28.6 28.6 0 0 1 4.8-2.3 6.9 6.9 0 0 1 4.2-.6q2.3 6 .4 10.7a15.2 15.2 0 0 1 4.1 10.7 26.3 26.3 0 0 1-1 7.8 16 16 0 0 1-2.8 5.5 14.4 14.4 0 0 1-4.2 3.5 20.8 20.8 0 0 1-5 2 34.2 34.2 0 0 1-5.2.9c1.8 1.6 2.7 4 2.7 7.4v11a2 2 0 0 0 .7 1.6 2.3 2.3 0 0 0 2 .3 39.2 39.2 0 0 0 19.7-14.4A38.9 38.9 0 0 0 80 40a39.1 39.1 0 0 0-5.4-20.1z"/>
</svg>
