<svg xmlns="http://www.w3.org/2000/svg" width="80" height="80">
  <defs>
    <style>
      .c{fill:#c8d362}
    </style>
  </defs>
  <path d="M37.3 79.9a37.2 37.2 0 0 1-10.2-2A39.7 39.7 0 0 1 3.3 56a2.4 2.4 0 0 1 0-.5 2.8 2.8 0 0 0 .1-.2l6.4-9.9 7.6-11.7 11-17 7.4-11.5L37.3 3v-.2.2a3 3 0 0 0-.6.3l-4.6 4.1-8.7 7.6-5.6 5-9 7.9-7.2 6.4-1.4 1 .1-.5a4.3 4.3 0 0 0 .5-.4L9.3 26l2.4-2.5 6.7-6.5L30.2 5.2 35.1.3c1.5 0 3-.3 4.6-.3a39.5 39.5 0 0 1 17.6 4l.2.1-5 10.7-3.6 8.9c-1.4 4-2.8 8-4.1 12.2-1.2 3.7-2.1 7.5-3.2 11.3l-1.4 6-.4 2.4-1.6 10.5-.7 8.5c-.2 1.7-.2 3.5-.3 5.3z" fill="#c31758"/>
  <path d="M37.3 79.9c0-1.8 0-3.6.2-5.4l.7-8.5 1.6-10.4.4-2.5 1.4-6c1-3.7 2-7.5 3.2-11.3a264.5 264.5 0 0 1 7.7-21l5-10.8a39.8 39.8 0 0 1 22.3 32 42.2 42.2 0 0 1 0 8.5c0 1-.3 2-.4 2.9-3 2.3-6 4.5-8.8 6.9a148.7 148.7 0 0 0-13.7 13.4l-3.8 4.2-5.2 6-1.2 1.5-4.3.5h-4.7a3.2 3.2 0 0 1-.5 0z" fill="#ece012"/>
  <path class="c" d="M37.3 3l-1.5 2.2-7.4 11.5-11 17-7.6 11.8-6.4 9.8a2.8 2.8 0 0 1-.2.3l-1-2.4a40.4 40.4 0 0 1-1.7-7 39.6 39.6 0 0 1-.4-8.8l.1-2.1 1.4-1.1L9 27.8l8.9-7.9 5.6-5 8.7-7.6 4.6-4a3 3 0 0 1 .5-.4zM35 .3c-1.5 1.7-3.2 3.3-4.8 4.9L18.4 16.9l-6.6 6.6L9.3 26 .8 34.3a4.3 4.3 0 0 1-.4.4A38.7 38.7 0 0 1 2.2 27a39.3 39.3 0 0 1 6.2-11.5A40 40 0 0 1 21 4.8 39 39 0 0 1 34.3.4h.8zm11.6 79.1L48 78a432 432 0 0 1 9-10.2l6.7-7c2.3-2.3 4.6-4.3 7-6.4l8.7-6.9-.8 3.7A40 40 0 0 1 48.9 79l-2.3.4z"/>
  <path class="c" d="M37.2 2.9l.1-.2V3zm.1-.2z"/>
</svg>
