<svg xmlns="http://www.w3.org/2000/svg" width="80" height="80">
  <path d="M80 40A40 40 0 1 1 40.4 0 40 40 0 0 1 80 40z"/>
  <path d="M27.8 20.3h2v2.1H32V16h-2.2v2.1h-2V16h-2.2v6.4h2.2v-2.1zm7.7 2.1h2.1v-4.3h1.9V16h-5.9v2.1h1.9v4.3zm7.4-3.2l1.4 2.4 1.5-2.4v3.2H48V16h-2.2l-1.5 2.2-1.4-2.2h-2.3v6.4h2.3v-3.2zm11.5 1.1h-3V16h-2.3v6.4h5.3v-2.1zm-32 5.3l3.2 35.2L40 64l14.4-3.2 3.2-35.2zm28 11.2H33.6l.8 3.2h15.2L48 54.4l-8 3.2-8-3.2-1.3-6.4h4.5l.8 3.2 4 1.6 4-1.6.8-6.4H30.4L28.8 32h22.4z" fill="#da7a28"/>
</svg>
