<svg xmlns="http://www.w3.org/2000/svg" width="80" height="80">
  <path d="M80 40A40 40 0 1 1 40.4 0 40 40 0 0 1 80 40z"/>
  <path d="M34 60.2h-1l-1-.4a7.4 7.4 0 0 1-2.9-2.1 27.7 27.7 0 0 1-5-7.9A26.1 26.1 0 0 1 22 39.6a14.7 14.7 0 0 1 1.8-7.3 10.8 10.8 0 0 1 7.1-5.4 7.3 7.3 0 0 1 3.8 0l3.7 1.3a4.1 4.1 0 0 0 3.2.2l2.3-.9a12 12 0 0 1 3.8-1 11 11 0 0 1 7 2.2 9 9 0 0 1 2.2 2.3l-.3.1a11.8 11.8 0 0 0-2.3 2.2 9.4 9.4 0 0 0-2 7.7 9.2 9.2 0 0 0 2.5 5.1 10.3 10.3 0 0 0 3 2.1c.2.1.3.2.2.5l-.6 1.4a24.9 24.9 0 0 1-3 5.5 15.5 15.5 0 0 1-3 3.3 5.3 5.3 0 0 1-3.7 1.2 8.5 8.5 0 0 1-3-.8 8.7 8.7 0 0 0-6.5-.5l-1.6.6-2.6.8zm14.8-44.4a13.5 13.5 0 0 1 0 2.1 9.7 9.7 0 0 1-3.6 6.3A7.3 7.3 0 0 1 40 26a6.2 6.2 0 0 1 0-2.3 9.9 9.9 0 0 1 4.4-6.3 9.3 9.3 0 0 1 3.9-1.5.8.8 0 0 0 .2 0z" fill="#f2f2f2"/>
</svg>
