<svg xmlns="http://www.w3.org/2000/svg" width="80" height="80">
  <path d="M40 0A40 40 0 1 1 0 40 40 40 0 0 1 40 0zM25.2 46h.9a23.3 23.3 0 0 0 8.1-.8 11 11 0 0 0 7.3-6.5 12.9 12.9 0 0 0 .8-6.4 10.4 10.4 0 0 0-6-8.7 15.8 15.8 0 0 0-7-1.5l-9.6.1c-.5 0-.7.2-.7.7V57c0 .6 0 .6.7.6h4.8c.7 0 .7 0 .7-.6V46zm22.3-.1v11.2c0 .5.2.6.6.6h5c.7 0 .8 0 .8-.7V37.5c0-1 0-1 .9-1.2h.1l5.5-.3c.4 0 .6-.1.6-.6v-4.3c0-.6 0-.6-.7-.6a33 33 0 0 0-7.5.9l-5.1 1.4c-.4.2-.4.4-.4.7l.2 3.4v9z"/>
  <path d="M25.2 46v11c0 .7 0 .8-.7.8h-4.8c-.6 0-.6 0-.6-.7V23c0-.5 0-.6.6-.6l9.7-.2a15.8 15.8 0 0 1 6.9 1.5 10.4 10.4 0 0 1 6 8.7 12.9 12.9 0 0 1-.7 6.5 11 11 0 0 1-7.3 6.4 23.3 23.3 0 0 1-8.2.8zm0-5.7a1.3 1.3 0 0 0 .3.1 25 25 0 0 0 5.4-.2c3.3-.6 5-2.3 5.3-5.5s-1-6-4.7-6.8a21 21 0 0 0-6.2-.2v.1zM47.5 46v-9l-.2-3.5c0-.4 0-.6.4-.7l5-1.4a33 33 0 0 1 7.6-1c.6 0 .6 0 .6.7v4.3c0 .4-.1.6-.5.6-1.9 0-3.7.2-5.5.3h-.1c-1 .2-1 .2-1 1.1V57c0 .7 0 .8-.7.8h-5c-.5 0-.6-.2-.6-.7V46z" fill="#9632c8"/>
  <path d="M25.2 40.4V27.8h.1a21 21 0 0 1 6.3.1c3.6.9 5 3.6 4.6 6.8s-2 4.9-5.3 5.5a25 25 0 0 1-5.4.2 1.3 1.3 0 0 1-.3 0z"/>
</svg>
