<svg xmlns="http://www.w3.org/2000/svg" width="80" height="80">
  <path d="M80 40A40 40 0 1 1 40.2 0 40 40 0 0 1 80 40zm-56 6h.8a23 23 0 0 0 8.1-.8 11 11 0 0 0 7.4-6.4 13 13 0 0 0 .7-6.5 10.4 10.4 0 0 0-6-8.6 15.8 15.8 0 0 0-7-1.5h-9.7c-.4 0-.5.3-.5.7v34.3c0 .5.1.6.6.6h4.9c.6 0 .6 0 .6-.6V46zm36.9-12v-2.3a.7.7 0 0 0-.5-.7c-.3 0-.5-.2-.8-.3a19.7 19.7 0 0 0-6.8-.6 10.7 10.7 0 0 0-4.8 1.5 7.5 7.5 0 0 0-.8 12.2 17 17 0 0 0 2.2 1.4c1.1.6 2.3 1 3.4 1.7a13.9 13.9 0 0 1 2.4 1.4 2.1 2.1 0 0 1-.6 3.9 7 7 0 0 1-2.3.4 13.7 13.7 0 0 1-7.3-2c-.5-.2-.6-.2-.6.4v4.7a.8.8 0 0 0 .5.8l1.4.6a19.3 19.3 0 0 0 7 .7 12 12 0 0 0 5.3-1.6c4.4-2.5 5-9.4.8-12.4a30.9 30.9 0 0 0-3.5-2l-3-1.5a9.4 9.4 0 0 1-2-1.3 2 2 0 0 1 .4-3.1 4.5 4.5 0 0 1 1.8-.6 13.2 13.2 0 0 1 7 1.3c.6.3.7.2.7-.4z" fill="#040404"/>
  <path d="M24 46v11.1c0 .7 0 .7-.8.7h-4.9c-.4 0-.6-.1-.6-.6V22.9c0-.5.1-.6.6-.6L28 22a15.8 15.8 0 0 1 7 1.5 10.4 10.4 0 0 1 6 8.7 13 13 0 0 1-.8 6.5 11 11 0 0 1-7.3 6.4 23 23 0 0 1-8.1.9zm0-5.6a1.3 1.3 0 0 0 .2 0 24.6 24.6 0 0 0 5.4-.1c3.3-.6 5-2.4 5.3-5.6.4-3.3-1.1-6-4.9-6.8a25 25 0 0 0-5.6-.2c-.4 0-.5.2-.5.6V40zM60.9 34v2.2c0 .6-.2.7-.7.4a13.2 13.2 0 0 0-7-1.3 4.5 4.5 0 0 0-1.9.6A2 2 0 0 0 51 39a9.4 9.4 0 0 0 2 1.3l3 1.5a30.9 30.9 0 0 1 3.5 2c4.3 3 3.6 10-.8 12.5a12 12 0 0 1-5.3 1.5 19.3 19.3 0 0 1-7-.7l-1.4-.5a.8.8 0 0 1-.5-.9V51c0-.6 0-.6.6-.3a13.7 13.7 0 0 0 7.3 2 7 7 0 0 0 2.2-.5 2.1 2.1 0 0 0 .7-3.8 13.9 13.9 0 0 0-2.4-1.5l-3.4-1.6a17 17 0 0 1-2.2-1.4 7.5 7.5 0 0 1 .8-12.3 10.7 10.7 0 0 1 4.8-1.5 19.7 19.7 0 0 1 6.8.6c.3 0 .5.2.8.3a.7.7 0 0 1 .5.7V34z" fill="#3fa9f5"/>
  <path d="M24 40.4V28.3c0-.4 0-.6.5-.6a25 25 0 0 1 5.5.2c3.8.8 5.3 3.5 5 6.8-.4 3.2-2.1 5-5.4 5.6a24.6 24.6 0 0 1-5.4.2 1.3 1.3 0 0 1-.3-.1z"/>
</svg>
