<svg xmlns="http://www.w3.org/2000/svg" width="80" height="80">
  <path d="M80 40A40 40 0 1 1 40.4 0 40 40 0 0 1 80 40z"/>
  <path d="M63.4 37.7V54a8.6 8.6 0 0 0 .2.8c0 .4 0 .4-.3.6a19.5 19.5 0 0 1-5.3 1.5 18.3 18.3 0 0 1-4 .2 11.7 11.7 0 0 1-5.4-1.6 10 10 0 0 1-4-4.4 14.6 14.6 0 0 1-1.3-4.7 19.8 19.8 0 0 1 0-3.6 14.3 14.3 0 0 1 1.1-5 12 12 0 0 1 3-4A11.7 11.7 0 0 1 53 31a15.9 15.9 0 0 1 4.1-.3h.5c.2 0 .2 0 .2-.2v-7.8a2.4 2.4 0 0 1 0-.3c0-.3.1-.3.4-.3h5c.3 0 .4 0 .4.3v1.4zm-5.7 6v-7.6c0-.4 0-.4-.4-.5h-.2a5.5 5.5 0 0 0-1.7-.1 6.3 6.3 0 0 0-2.5.6 6.2 6.2 0 0 0-3 3 10.4 10.4 0 0 0-1 4.5 15.3 15.3 0 0 0 .2 2.6 9.1 9.1 0 0 0 1 3 5.5 5.5 0 0 0 3.4 2.8 7.2 7.2 0 0 0 1.9.3 6.6 6.6 0 0 0 1.8-.3c.5-.1.5-.1.5-.7zm-28.9-8.5a2 2 0 0 0 .1-.3l2-4.3 2-4.3 1.7-3.7.2-.2a.6.6 0 0 1 .6-.4h5c.3 0 .4.1.3.3l-.4.8-2.3 4.4-5.8 11a.6.6 0 0 0 0 .7l3.8 7.3 4.1 8 1 1.8a1.5 1.5 0 0 1 0 .2c.1.2 0 .4-.2.4h-5.5a.8.8 0 0 1-.8-.5L32 50.7l-3.3-7a1.4 1.4 0 0 0-.4-.5l-.2.3-1.8 4-2.2 5-1.8 3.8a1.8 1.8 0 0 1-.2.3.6.6 0 0 1-.5.3h-5c-.6 0-.7 0-.4-.6l3.1-6 5.5-10.5a.8.8 0 0 0 0-.8l-4.2-8.2-4.1-8.3h-.1q-.2-.5.2-.5h5.6a.5.5 0 0 1 .5.3l1.2 2.6 1.7 3.5 3 6.5.1.3z" fill="#ff2bc2"/>
</svg>
