<svg width="93" height="24" viewBox="0 0 93 24" version="1.1" xmlns="http://www.w3.org/2000/svg" xmlns:xlink="http://www.w3.org/1999/xlink">
<title>WW_logo_white_full</title>
<desc>Created using Figma</desc>
<g id="Canvas" transform="translate(-2077 -306)">
<g id="WW_logo_white_full">
<g id="Vector">
<use xlink:href="#path0_fill" transform="matrix(1 -1.22465e-16 1.22465e-16 1 2077 306)" fill="#FFFFFF"/>
</g>
<g id="Vector">
<use xlink:href="#path1_fill" transform="matrix(1 -1.22465e-16 1.22465e-16 1 2158.1 310.591)" fill="#E34132"/>
</g>
<g id="Vector">
<use xlink:href="#path2_fill" transform="matrix(1 -1.22465e-16 1.22465e-16 1 2158.18 313.304)" fill="#FFFFFF"/>
</g>
<g id="Vector">
<use xlink:href="#path3_fill" transform="matrix(1 -1.22465e-16 1.22465e-16 1 2153.15 318.313)" fill="#FFFFFF"/>
</g>
</g>
</g>
<defs>
<path id="path0_fill" d="M 2.94908 0L 4.21297 6.15652L 4.42362 8.03478C 4.52894 7.4087 4.52894 6.78261 4.73959 6.26087L 6.00348 0L 9.05789 0L 10.3218 6.26087L 10.6378 8.03478L 10.8484 6.15652L 12.1123 0L 15.0614 0L 12.007 11.4783L 9.16321 11.4783L 7.794 5.0087L 7.47802 3.13043L 7.16205 5.0087L 5.89816 11.4783L 3.0544 11.4783L 0 0L 2.94908 0ZM 15.272 7.82609L 14.3241 6.67826L 16.0093 5.32174L 16.0093 0L 18.6424 0L 18.6424 3.54783L 19.3797 3.02609L 20.2223 4.06957L 18.6424 5.42609L 18.6424 11.4783L 16.0093 11.4783L 16.0093 7.09565L 15.272 7.82609ZM 27.1737 0L 31.176 11.4783L 28.1216 11.4783L 27.595 9.8087L 23.1713 9.8087L 22.75 11.4783L 19.6956 11.4783L 23.5926 0L 27.1737 0ZM 25.3831 2.29565L 23.8033 7.61739L 26.963 7.61739L 25.3831 2.29565ZM 35.9156 0C 37.3901 0 38.5487 0.104348 39.3913 0.730435C 41.1818 1.77391 42.0244 3.44348 42.0244 5.73913C 42.0244 7.82609 41.0765 9.49565 39.3913 10.6435C 38.5487 11.1652 37.3901 11.4783 35.9156 11.4783L 32.3346 11.4783L 32.3346 0L 35.9156 0ZM 39.0753 5.73913C 39.0753 3.54783 37.9167 2.29565 36.0209 2.29565L 35.1783 2.29565L 35.1783 9.07826L 36.1262 9.07826C 37.9167 9.07826 39.0753 7.82609 39.0753 5.73913ZM 50.345 0L 50.345 2.1913L 46.764 2.1913L 46.764 4.48696L 50.345 4.48696L 50.345 6.78261L 46.764 6.78261L 46.764 9.07826L 50.345 9.07826L 50.345 11.4783L 43.9202 11.4783L 43.9202 0L 50.345 0ZM 55.6112 0L 55.6112 5.21739L 58.455 0L 61.72 0L 58.3496 5.32174L 61.8253 11.4783L 58.6656 11.4783L 55.6112 5.94783L 55.6112 11.4783L 52.6621 11.4783L 52.6621 0L 55.6112 0ZM 6.42478 12.313L 7.58335 18.4696L 7.89932 20.4522L 8.10997 18.5739L 9.47918 12.313L 12.5336 12.313L 13.7975 18.5739L 14.0081 20.4522L 14.3241 18.4696L 15.588 12.313L 18.5371 12.313L 15.4827 23.7913L 12.6389 23.7913L 11.2697 17.4261L 10.9537 15.5478L 10.6378 17.4261L 9.37386 23.7913L 6.5301 23.7913L 3.4757 12.313L 6.42478 12.313ZM 26.1204 12.313L 26.1204 14.6087L 22.5394 14.6087L 22.5394 16.9043L 26.1204 16.9043L 26.1204 19.0957L 22.5394 19.0957L 22.5394 21.4957L 26.1204 21.4957L 26.1204 23.7913L 19.6956 23.7913L 19.6956 12.313L 26.1204 12.313ZM 32.6505 12.313C 35.389 12.313 36.8635 13.8783 36.8635 16.0696C 36.8635 17.8435 35.9156 18.9913 34.3357 19.0957L 37.3901 23.7913L 33.9144 23.7913L 31.3866 18.887L 31.3866 23.7913L 28.4376 23.7913L 28.4376 12.313L 32.6505 12.313ZM 31.3866 17.7391L 32.2292 17.7391C 33.2825 17.7391 33.9144 17.2174 33.9144 16.1739C 33.9144 15.1304 33.3878 14.6087 32.1239 14.6087L 31.3866 14.6087L 31.3866 17.7391ZM 41.8137 12.313L 41.8137 17.5304L 44.7628 12.313L 47.9225 12.313L 44.6575 17.7391L 48.1332 23.7913L 44.8681 23.7913L 41.8137 18.3652L 41.8137 23.7913L 38.97 23.7913L 38.97 12.313L 41.8137 12.313ZM 52.9781 21.7043C 53.8207 21.7043 54.3473 21.287 54.3473 20.6609C 54.3473 19.9304 53.7154 19.6174 52.4515 19.2C 51.7142 18.9913 50.8716 18.6783 50.1344 18.1565C 49.3971 17.5304 48.9758 16.6957 48.9758 15.6522C 48.9758 13.5652 50.4503 12.1043 52.8728 12.1043C 55.4006 12.1043 56.8751 13.3565 56.8751 15.6522L 54.242 15.6522C 54.242 14.8174 53.7154 14.2957 52.8728 14.2957C 52.1355 14.2957 51.6089 14.713 51.6089 15.3391C 51.6089 16.1739 52.3462 16.3826 53.8207 16.9043C 54.7686 17.2174 55.6112 17.5304 56.3485 18.2609C 56.8751 18.7826 57.0858 19.513 57.0858 20.3478C 57.0858 22.5391 55.5059 24 52.8728 24C 50.4503 24 48.8705 22.6435 48.8705 20.4522L 51.5036 20.4522C 51.5036 21.287 52.1355 21.7043 52.9781 21.7043ZM 57.823 14.713L 57.823 12.313L 65.933 12.313L 65.933 14.713L 63.2999 14.713L 63.2999 23.7913L 60.3508 23.7913L 60.3508 14.713L 57.823 14.713ZM 72.8844 12.313L 76.7814 23.7913L 73.727 23.7913L 73.3057 22.1217L 68.7768 22.1217L 68.3555 23.7913L 65.301 23.7913L 69.198 12.313L 72.8844 12.313ZM 70.9886 14.713L 69.514 20.0348L 72.5684 20.0348L 70.9886 14.713Z"/>
<path id="path1_fill" d="M 2.84376 7.51304L 2.84376 7.72174L 0 7.72174L 0 7.4087L 1.79051 7.30435L 1.89584 7.09565L 2.84376 7.51304ZM 4.00232 3.13043L 1.47454 3.86087L 0.315973 0.626087L 1.26389 0L 4.00232 3.13043Z"/>
<path id="path2_fill" d="M 0.339378 4.38261L 0.0234054 4.48696C 0.0234054 4.06956 -0.187243 1.46087 0.655351 0L 0.760675 0.313043C 0.12873 1.77391 0.234054 4.06956 0.339378 4.38261Z"/>
<path id="path3_fill" d="M 16.2199 0L 16.2199 2.4L 13.5868 2.4L 13.5868 11.4783L 10.6378 11.4783L 10.6378 2.4L 5.47686 2.4L 5.47686 11.4783L 2.63311 11.4783L 2.63311 2.4L 0 2.4L 0 0L 16.2199 0Z"/>
</defs>
</svg>
