<svg width="101" height="118" viewBox="0 0 101 118" version="1.1" xmlns="http://www.w3.org/2000/svg" xmlns:xlink="http://www.w3.org/1999/xlink">
<title>UATEAM</title>
<desc>Created using Figma</desc>
<g id="Canvas" transform="translate(-1293 -915)">
<g id="UATEAM">
<g id="Vector">
<use xlink:href="#path0_fill" transform="translate(1293 915)" fill="#FFFFFF"/>
</g>
<g id="Vector">
<use xlink:href="#path1_fill" transform="translate(1356.42 953.217)" fill="#FAD864"/>
</g>
</g>
</g>
<defs>
<path id="path0_fill" fill-rule="evenodd" d="M 60.6238 90.3276L 48.3729 90.3276L 48.3729 92.7488C 48.3729 94.3769 49.8692 95.5625 51.3463 95.5625L 60.4681 95.5625C 61.1765 95.56 61.859 95.8304 62.3752 96.3181C 62.8915 96.8059 63.2023 97.4739 63.2438 98.1849L 63.2438 98.3363C 63.1643 99.8191 61.9714 100.798 60.4663 100.798L 56.5637 100.798C 54.3313 100.853 52.2087 101.784 50.6491 103.391C 49.0896 104.998 48.2166 107.154 48.2166 109.399C 48.2166 111.644 49.0896 113.801 50.6491 115.408C 52.2087 117.015 54.3313 117.945 56.5637 118L 69.1242 118L 69.1242 97.8996C 68.767 93.4827 65.0421 90.3276 60.6238 90.3276ZM 63.1956 112.017L 56.5661 112.017C 54.9763 112.017 53.7774 110.925 53.7774 109.398C 53.7774 107.871 54.9763 106.781 56.5661 106.781L 60.4686 106.781C 61.0847 106.798 61.7006 106.744 62.3048 106.622L 63.197 106.464L 63.197 112.017L 63.1956 112.017ZM 92.4809 89.9774C 90.6112 89.9714 88.7921 90.5878 87.3075 91.7305L 86.8137 92.0878L 86.3363 91.7305C 84.8737 90.5884 83.0731 89.9713 81.2213 89.9774C 78.9905 89.988 76.8549 90.8871 75.2823 92.4779C 73.7097 94.0686 72.8283 96.2213 72.8313 98.4642L 72.8313 118L 75.5742 118C 77.2229 118 78.7608 116.7 78.7608 115.164L 78.7608 98.4642C 78.7608 96.8601 79.8424 95.6504 81.3555 95.6504C 82.8686 95.6504 83.9492 96.8601 83.9492 98.4642L 83.9492 115.172C 83.9426 115.54 84.0089 115.906 84.1442 116.249C 84.2795 116.591 84.4812 116.903 84.7375 117.166C 84.9938 117.429 85.2996 117.638 85.6371 117.781C 85.9746 117.925 86.337 117.999 86.7034 118L 86.9624 118C 87.7185 118.002 88.4454 117.706 88.988 117.177C 89.5307 116.648 89.8461 115.926 89.8671 115.166L 89.8788 98.4642C 89.8788 96.8601 90.9599 95.6504 92.473 95.6504C 93.9861 95.6504 95.0672 96.8601 95.0672 98.4642L 95.0672 115.164C 95.0754 115.92 95.3806 116.642 95.9161 117.174C 96.4516 117.705 97.1742 118.002 97.9265 118L 101 118L 101 98.4642C 100.975 96.2079 100.067 94.0525 98.4725 92.4642C 96.8785 90.8759 94.7265 89.9826 92.4823 89.9774L 92.4809 89.9774ZM 43.4132 112.017L 33.9108 112.017C 32.3209 112.017 31.1225 110.925 31.1225 109.398C 31.1225 107.871 32.3214 106.781 33.9108 106.781L 37.8133 106.781C 42.4509 106.781 46.2239 103.214 46.2239 98.554C 46.2239 93.8936 42.4509 90.3267 37.8133 90.3267L 0 90.3267L 0 92.7479C 0 94.3759 0.96932 95.5616 2.44785 95.5616L 10.3768 95.5616L 10.3768 117.999L 13.0697 117.999C 14.6759 117.999 16.3068 116.6 16.3068 115.109L 16.3068 95.5625L 25.2009 95.5625L 25.2135 109.553C 25.2135 114.214 29.2732 118 33.9108 118L 46.2229 118L 46.2192 115.026C 46.1607 113.411 44.8996 112.017 43.4132 112.017ZM 31.1309 95.5621L 37.7815 95.5621C 39.3713 95.5621 40.5697 96.6537 40.5697 98.1802C 40.5697 99.7067 39.3708 100.798 37.7815 100.798L 32.9358 100.798C 32.2719 100.835 31.6381 101.089 31.1304 101.52L 31.1304 95.5625L 31.1309 95.5621ZM 70.0454 0.294302C 52.5901 0.294302 38.5441 14.5722 38.5441 32.1852L 38.5441 45.7677C 38.5441 49.6815 35.7521 52.8544 31.8734 52.8544C 27.9948 52.8544 25.2028 49.6815 25.2028 45.7677L 25.2028 12.4025C 25.1738 9.10272 23.8495 5.94802 21.5183 3.62516C 19.1871 1.30231 16.0376 -0.000624333 12.7555 2.24431e-07L 0 2.24431e-07L 0 45.7672C 0 63.3797 14.046 77.6576 31.5012 77.6576C 48.9565 77.6576 63.002 63.3797 63.002 45.7672L 63.002 32.1847C 63.0028 30.3063 63.7449 28.505 65.0655 27.1762C 66.3861 25.8475 68.1771 25.1 70.0454 25.0979C 73.9264 25.0979 76.5407 28.2708 76.5407 32.1852L 76.5407 65.257C 76.5407 72.1063 81.7029 77.0347 88.491 77.0347L 101 77.0347L 101 32.1842C 101 14.5741 87.4983 0.294302 70.0454 0.294302Z"/>
<path id="path1_fill" fill-rule="evenodd" d="M 13.2048 6.65282C 13.2019 7.96514 12.8123 9.24715 12.085 10.3369C 11.3578 11.4266 10.3256 12.2752 9.11889 12.7754C 7.91218 13.2756 6.58509 13.4049 5.30529 13.1471C 4.0255 12.8893 2.85042 12.2559 1.92852 11.3269C 1.00663 10.3979 0.37928 9.21499 0.12575 7.92766C -0.12778 6.64034 0.00388423 5.30634 0.5041 4.09422C 1.00432 2.88209 1.85064 1.84624 2.93614 1.11751C 4.02165 0.388794 5.29762 -8.959e-05 6.60286 1.87708e-07C 7.47082 0.000987444 8.33009 0.173851 9.13161 0.508721C 9.93313 0.843591 10.6612 1.33391 11.2742 1.95168C 11.8873 2.56945 12.3733 3.30258 12.7046 4.1092C 13.0358 4.91582 13.2058 5.78015 13.2048 6.65282Z"/>
</defs>
</svg>
