<svg id="Слой_1" xmlns="http://www.w3.org/2000/svg" viewBox="0 0 480 480">
  <style>
    .st0{fill:#fff}.st1{opacity:.85}.st3{fill:#0043ff}
  </style>
  <path class="st0" d="M293.4 244.6h-28.3l.2-2 .6-1.9.9-2.4c.3-.7.8-1.4 1.3-2.1a9 9 0 0 1 2-1.9c.8-.6 1.6-1 2.4-1.4a12.7 12.7 0 0 1 6.9-1.7c2.1 0 4 .3 5.8.9 1.7.6 3.1 1.5 4.2 2.7 1 1.1 1.9 2.5 2.5 4.1.8 1.8 1.3 3.6 1.5 5.7z"/>
  <path class="st0" d="M0 0h480v480H0z"/>
  <g class="st1">
    <path class="st3" d="M261.3 202.2h35.5v8.3h-35.5z"/>
  </g>
  <g class="st1">
    <path class="st3" d="M310.7 248.9a43.6 43.6 0 0 0-3.3-13.5 32 32 0 0 0-13.1-14 31.2 31.2 0 0 0-14.1-3.1 38.5 38.5 0 0 0-13.3 2.5 50 50 0 0 0-10.3 7.2 42 42 0 0 0-3.7 4.9 37.2 37.2 0 0 0 0 38.1 37 37 0 0 0 3.7 4.9 35 35 0 0 0 16.5 8.5 40 40 0 0 0 17.1-.8 28.8 28.8 0 0 0 15-10.3c2-2.6 3.5-6 4.7-10.3h-15.2c-.5 1.4-1.1 2.5-1.8 3.3a15 15 0 0 1-2.9 2.5 14.4 14.4 0 0 1-9.1 3.1c-2.4 0-4.5-.3-6.4-1a12.3 12.3 0 0 1-7.9-8.2c-.8-2.3-1.2-4.6-1.2-6.8h45.7l-.4-7zm-45.5-4.3l.2-2 .6-1.9.9-2.4c.3-.7.8-1.4 1.3-2.1a9 9 0 0 1 2-1.9c.8-.6 1.6-1 2.4-1.4a12.7 12.7 0 0 1 6.9-1.7c2.1 0 4 .3 5.8.9 1.7.6 3.1 1.5 4.2 2.7 1 1.1 1.9 2.5 2.5 4.1.7 1.7 1.1 3.5 1.4 5.5h-28.2z"/>
  </g>
  <g class="st1">
    <path class="st3" d="M241.2 250.3c-.7-2.3-1.7-4.4-3.1-6.3a20.7 20.7 0 0 0-11.8-8.3c1.9-.8 3.7-1.9 5.2-3.1 1.5-1.2 2.7-2.6 3.7-4.1 1.1-1.4 1.9-3 2.4-4.9.5-1.9.7-3.8.7-5.9 0-2.1-.2-4.1-.5-5.8-.3-1.8-.8-3.2-1.5-4.4a20.4 20.4 0 0 0-5.9-6.9l-4-2.3c-1.4-.7-2.9-1.2-4.6-1.6-1.8-.5-3.7-.8-5.7-1.2-1.9-.3-3.9-.5-6-.5h-41v88.1h42.4a77.6 77.6 0 0 0 11.3-1.4l5.3-1.9c1.7-.7 3.2-1.6 4.7-2.5a28.8 28.8 0 0 0 6.9-8c.8-1.6 1.5-3.3 1.9-5.2a29.6 29.6 0 0 0-.4-13.8zm-53.6-39.8h18.6l2.5.2 2.5.4a34.4 34.4 0 0 1 4.2 1.7l1.8 1.5c.5.5.9 1 1.2 1.6.5.7.8 1.5.9 2.4l.2 2.6c0 1.9-.3 3.5-.8 4.7a9.3 9.3 0 0 1-2.5 3.1c-1.1.8-2.4 1.4-3.8 1.6s-3 .4-4.8.4h-19.9v-20.2zm35.1 49.6c-.3 1-.6 1.8-1 2.4-.3.8-.7 1.5-1.2 2.1a12 12 0 0 1-1.8 1.5c-.7.5-1.5.8-2.1 1.1l-2.3.8-2.7.4-2.8.1h-21v-24.1h21.6c2.1 0 4 .2 5.7.7 1.7.5 3.1 1.2 4.3 2.1a9 9 0 0 1 2.9 3.8c.6 1.5 1 3.4 1 5.6-.2 1.4-.3 2.6-.6 3.5z"/>
  </g>
</svg>
