<svg xmlns="http://www.w3.org/2000/svg" viewBox="0 0 480 480">
  <path fill="#fff" d="M0 0h480v480H0z"/>
  <path d="M303.2 214.3c-1.4-6.6-3.1-10.9-5-12.8-2.5-2.6-5-4.1-7.5-4.6a51 51 0 0 0-5.6-.9l-14.5-.8-14.7-.4-15.9-.1-15.9.1-14.7.4c-5.2.2-10.1.4-14.5.8-1.3.1-3.1.3-5.6.8-2.5.5-5 2-7.5 4.7-1.9 1.8-3.5 6.1-5 12.8-.8 8.6-1.3 15.5-1.3 20.6v9.8c0 5.3.4 12.3 1.3 20.9a29 29 0 0 0 5 12.8c2.5 2.5 5.2 4 8 4.5l6.4 1.1c2.6.3 6.3.5 11.2.6l14.5.4 18.1.3 15.9-.1 14.7-.4a288 288 0 0 0 14.5-.8 51 51 0 0 0 5.6-.9c2.5-.6 5-2.1 7.5-4.6 1.9-2 3.5-6.3 5-12.8.8-8.7 1.3-15.6 1.3-20.9V235c0-5.2-.5-12-1.3-20.7zM257.4 241l-30.5 15.9v-36.3l34.8 18.1-4.3 2.3z" fill="#ff003a" opacity=".8"/>
</svg>
